<svg xmlns="http://www.w3.org/2000/svg" viewBox="0 0 1920 1080" width="1920" height="1080">
  <defs>
    <!-- Gradients -->
    <linearGradient id="skyGradient" x1="0" x2="0" y1="0" y2="1">
      <stop offset="0" stop-color="#0A0A0F"/>
      <stop offset="0.2" stop-color="#1A1A2E"/>
      <stop offset="0.4" stop-color="#16213E"/>
      <stop offset="0.6" stop-color="#0F3460"/>
      <stop offset="0.8" stop-color="#0A0A0F"/>
      <stop offset="1" stop-color="#000000"/>
    </linearGradient>
    
    <radialGradient id="centerGlow" cx="0.5" cy="0.3" r="0.8">
      <stop offset="0" stop-color="#F472B6" stop-opacity="0.3"/>
      <stop offset="0.3" stop-color="#A855F7" stop-opacity="0.2"/>
      <stop offset="0.6" stop-color="#3B82F6" stop-opacity="0.1"/>
      <stop offset="1" stop-color="#22D3EE" stop-opacity="0.05"/>
    </radialGradient>
    
    <linearGradient id="mountainGradient" x1="0" x2="0" y1="0" y2="1">
      <stop offset="0" stop-color="#1A1A2E" stop-opacity="0.8"/>
      <stop offset="1" stop-color="#0A0A0F"/>
    </linearGradient>
    
    <!-- Patterns -->
    <pattern id="stars" x="0" y="0" width="100" height="100" patternUnits="userSpaceOnUse">
      <circle cx="20" cy="20" r="1" fill="#FFFFFF" opacity="0.6"/>
      <circle cx="60" cy="40" r="0.8" fill="#22D3EE" opacity="0.4"/>
      <circle cx="80" cy="80" r="1.2" fill="#F472B6" opacity="0.3"/>
      <circle cx="40" cy="70" r="0.6" fill="#A855F7" opacity="0.5"/>
    </pattern>
  </defs>
  
  <!-- Background -->
  <rect width="1920" height="1080" fill="url(#skyGradient)"/>
  
  <!-- Center Glow -->
  <rect width="1920" height="1080" fill="url(#centerGlow)"/>
  
  <!-- Stars Pattern -->
  <rect width="1920" height="600" fill="url(#stars)"/>
  
  <!-- Mountains -->
  <path d="M0,800 L200,600 L400,700 L600,500 L800,650 L1000,450 L1200,550 L1400,400 L1600,500 L1800,350 L1920,400 L1920,1080 L0,1080 Z" fill="url(#mountainGradient)"/>
  <path d="M0,900 L300,750 L600,850 L900,650 L1200,800 L1500,600 L1800,750 L1920,700 L1920,1080 L0,1080 Z" fill="#0A0A0F" opacity="0.8"/>
  
  <!-- Aurora Effect -->
  <path d="M0,300 Q480,200 960,250 Q1440,300 1920,200 L1920,400 Q1440,350 960,400 Q480,450 0,400 Z" fill="url(#skyGradient)" opacity="0.2"/>
  
  <!-- Tech Grid Overlay -->
  <defs>
    <pattern id="techGrid" x="0" y="0" width="100" height="100" patternUnits="userSpaceOnUse">
      <path d="M0,0 L100,0 M0,0 L0,100" stroke="#F472B6" stroke-width="0.5" opacity="0.1"/>
    </pattern>
  </defs>
  <rect width="1920" height="600" fill="url(#techGrid)"/>
</svg>
